<svg width="128" height="126" viewBox="0 0 128 126" fill="none" xmlns="http://www.w3.org/2000/svg">
<path d="M16.7776 83.6941C16.9104 83.5613 16.9851 83.3811 16.9851 83.1933C16.9851 83.0054 16.9104 82.8253 16.7776 82.6924C15.5838 81.4959 14.9133 79.8748 14.9133 78.1846C14.9133 76.4944 15.5838 74.8733 16.7776 73.6768C16.9104 73.544 16.9851 73.3638 16.9851 73.1759C16.9851 72.9881 16.9104 72.8079 16.7776 72.6751C16.6448 72.5422 16.4646 72.4676 16.2767 72.4676C16.0889 72.4676 15.9087 72.5422 15.7759 72.6751C14.5794 73.8689 12.9582 74.5393 11.2681 74.5393C9.57789 74.5393 7.95672 73.8689 6.76026 72.6751C6.62742 72.5422 6.44726 72.4676 6.25939 72.4676C6.07153 72.4676 5.89136 72.5422 5.75853 72.6751C5.62569 72.8079 5.55106 72.9881 5.55106 73.1759C5.55106 73.3638 5.62569 73.544 5.75853 73.6768C6.95234 74.8733 7.62279 76.4944 7.62279 78.1846C7.62279 79.8748 6.95234 81.4959 5.75853 82.6924C5.62569 82.8253 5.55106 83.0054 5.55106 83.1933C5.55106 83.3811 5.62569 83.5613 5.75853 83.6941C5.89136 83.827 6.07153 83.9016 6.25939 83.9016C6.44725 83.9016 6.62742 83.827 6.76026 83.6941C7.95672 82.5003 9.57789 81.8299 11.2681 81.8299C12.9582 81.8299 14.5794 82.5003 15.7759 83.6941C15.9087 83.827 16.0889 83.9016 16.2767 83.9016C16.4646 83.9016 16.6448 83.827 16.7776 83.6941Z" fill="#B3C0FF"/>
<path d="M78.5555 37.7559C79.2186 38.4206 79.591 39.3212 79.591 40.2602C79.591 41.1992 79.2186 42.0998 78.5555 42.7645C78.4226 42.8974 78.348 43.0775 78.348 43.2654C78.348 43.4533 78.4226 43.6334 78.5555 43.7663C78.6883 43.8991 78.8685 43.9737 79.0563 43.9737C79.2442 43.9737 79.4243 43.8991 79.5572 43.7663C80.2219 43.1031 81.1226 42.7307 82.0615 42.7307C83.0005 42.7307 83.9011 43.1031 84.5659 43.7663C84.6987 43.8991 84.8789 43.9737 85.0667 43.9737C85.2546 43.9737 85.4348 43.8991 85.5676 43.7663C85.7004 43.6334 85.7751 43.4533 85.7751 43.2654C85.7751 43.0775 85.7004 42.8974 85.5676 42.7645C84.9044 42.0998 84.532 41.1992 84.532 40.2602C84.532 39.3212 84.9044 38.4206 85.5676 37.7559C85.7004 37.623 85.7751 37.4428 85.7751 37.255C85.7751 37.0671 85.7004 36.887 85.5676 36.7541C85.4348 36.6213 85.2546 36.5467 85.0667 36.5467C84.8789 36.5467 84.6987 36.6213 84.5659 36.7541C83.9011 37.4173 83.0005 37.7897 82.0615 37.7897C81.1226 37.7897 80.2219 37.4173 79.5572 36.7541C79.4243 36.6213 79.2442 36.5467 79.0563 36.5467C78.8685 36.5467 78.6883 36.6213 78.5555 36.7541C78.4226 36.887 78.348 37.0671 78.348 37.255C78.348 37.4428 78.4226 37.623 78.5555 37.7559Z" fill="#6881FF"/>
<path d="M52.613 104.724C51.9499 104.059 51.5774 103.158 51.5774 102.219C51.5774 101.28 51.9499 100.38 52.613 99.7148C52.7458 99.582 52.8205 99.4018 52.8205 99.214C52.8205 99.0261 52.7458 98.8459 52.613 98.7131C52.4802 98.5803 52.3 98.5056 52.1121 98.5056C51.9243 98.5056 51.7441 98.5803 51.6113 98.7131C50.9465 99.3763 50.0459 99.7487 49.1069 99.7487C48.168 99.7487 47.2673 99.3763 46.6026 98.7131C46.4698 98.5803 46.2896 98.5056 46.1017 98.5056C45.9139 98.5056 45.7337 98.5803 45.6009 98.7131C45.468 98.8459 45.3934 99.0261 45.3934 99.214C45.3934 99.4018 45.468 99.582 45.6009 99.7148C46.264 100.38 46.6364 101.28 46.6364 102.219C46.6364 103.158 46.264 104.059 45.6009 104.724C45.468 104.856 45.3934 105.037 45.3934 105.224C45.3934 105.412 45.468 105.592 45.6009 105.725C45.7337 105.858 45.9139 105.933 46.1017 105.933C46.2896 105.933 46.4698 105.858 46.6026 105.725C47.2673 105.062 48.168 104.69 49.1069 104.69C50.0459 104.69 50.9465 105.062 51.6113 105.725C51.7441 105.858 51.9243 105.933 52.1121 105.933C52.3 105.933 52.4802 105.858 52.613 105.725C52.7458 105.592 52.8205 105.412 52.8205 105.224C52.8205 105.037 52.7458 104.856 52.613 104.724Z" fill="#6881FF"/>
<path d="M121.955 35.0074C120.761 33.8109 120.091 32.1897 120.091 30.4995C120.091 28.8094 120.761 27.1882 121.955 25.9917C122.088 25.8589 122.162 25.6787 122.162 25.4909C122.162 25.303 122.088 25.1228 121.955 24.99C121.822 24.8572 121.642 24.7825 121.454 24.7825C121.266 24.7825 121.086 24.8572 120.953 24.99C119.757 26.1838 118.135 26.8543 116.445 26.8543C114.755 26.8543 113.134 26.1838 111.938 24.99C111.805 24.8572 111.625 24.7825 111.437 24.7825C111.249 24.7825 111.069 24.8572 110.936 24.99C110.803 25.1228 110.728 25.303 110.728 25.4909C110.728 25.6787 110.803 25.8589 110.936 25.9917C112.13 27.1882 112.8 28.8094 112.8 30.4995C112.8 32.1897 112.13 33.8109 110.936 35.0074C110.803 35.1402 110.728 35.3204 110.728 35.5082C110.728 35.6961 110.803 35.8763 110.936 36.0091C111.069 36.1419 111.249 36.2166 111.437 36.2166C111.625 36.2166 111.805 36.1419 111.938 36.0091C113.134 34.8153 114.755 34.1448 116.445 34.1448C118.135 34.1448 119.757 34.8153 120.953 36.0091C121.086 36.1419 121.266 36.2166 121.454 36.2166C121.642 36.2166 121.822 36.1419 121.955 36.0091C122.088 35.8763 122.162 35.6961 122.162 35.5082C122.162 35.3204 122.088 35.1402 121.955 35.0074Z" fill="#B3C0FF"/>
<path d="M119.451 83.6207L85.1802 72.597C82.5519 71.7515 79.7348 73.1974 78.8893 75.8257L72.1526 96.7689C71.3072 99.3973 72.753 102.214 75.3814 103.06L84.444 105.975L88.8268 117.495C89.0233 118.011 89.6006 118.271 90.1175 118.074C90.1868 118.048 90.2526 118.014 90.3138 117.974L100.589 111.168L109.652 114.084C112.28 114.929 115.097 113.483 115.943 110.855L122.68 89.9116C123.525 87.2832 122.079 84.4662 119.451 83.6207Z" fill="#6881FF"/>
<path d="M110.525 91.0632L87.6779 83.714C87.1515 83.5447 86.8628 82.9823 87.0322 82.4559C87.2015 81.9294 87.7639 81.6408 88.2903 81.8101L111.137 89.1593C111.664 89.3286 111.953 89.891 111.783 90.4174C111.614 90.9439 111.051 91.2325 110.525 91.0632Z" fill="white"/>
<path d="M108.535 97.2507L85.6877 89.9015C85.1612 89.7322 84.8726 89.1698 85.0419 88.6434C85.2113 88.1169 85.7737 87.8283 86.3001 87.9976L109.147 95.3468C109.674 95.5161 109.962 96.0785 109.793 96.6049C109.624 97.1314 109.061 97.42 108.535 97.2507Z" fill="white"/>
<path d="M97.0244 100.377L83.697 96.0895C83.1705 95.9202 82.8819 95.3578 83.0512 94.8314C83.2205 94.3049 83.7829 94.0163 84.3094 94.1856L97.6369 98.4726C98.1633 98.6419 98.4519 99.2044 98.2826 99.7308C98.1133 100.257 97.5509 100.546 97.0244 100.377Z" fill="white"/>
<path d="M57.0703 1.34615L21.241 4.84681C18.493 5.11529 16.4824 7.5614 16.7509 10.3093L18.8901 32.2051C19.1586 34.953 21.6047 36.9636 24.3526 36.6952L33.8275 35.7694L42.427 44.6001C42.8123 44.9955 43.4451 45.004 43.8415 44.6186C43.8947 44.5672 43.9413 44.5094 43.9816 44.4482L50.7072 34.1202L60.182 33.1945C62.93 32.926 64.9406 30.4799 64.6721 27.732L62.5329 5.83625C62.2644 3.08834 59.8183 1.07767 57.0703 1.34615Z" fill="#2147FF"/>
<path d="M51.8363 11.7226L27.95 14.0564C27.3996 14.1101 26.9113 13.7087 26.8575 13.1583C26.8037 12.608 27.2051 12.1196 27.7555 12.0658L51.6418 9.73208C52.1922 9.6783 52.6805 10.0797 52.7343 10.6301C52.7881 11.1805 52.3866 11.6688 51.8363 11.7226Z" fill="white"/>
<path d="M52.4686 18.1918L28.5823 20.5256C28.0319 20.5794 27.5436 20.178 27.4898 19.6276C27.436 19.0772 27.8375 18.5889 28.3878 18.5351L52.2741 16.2013C52.8245 16.1475 53.3128 16.549 53.3666 17.0993C53.4204 17.6497 53.019 18.1381 52.4686 18.1918Z" fill="white"/>
<path d="M43.1478 25.633L29.2142 26.9944C28.6638 27.0481 28.1754 26.6467 28.1217 26.0963C28.0679 25.546 28.4693 25.0576 29.0197 25.0038L42.9533 23.6425C43.5037 23.5887 43.9921 23.9901 44.0458 24.5405C44.0996 25.0909 43.6982 25.5792 43.1478 25.633Z" fill="white"/>
</svg>
