<svg width="128" height="125" viewBox="0 0 128 125" fill="none" xmlns="http://www.w3.org/2000/svg">
  <path d="M16.9597 83.0569C17.0926 82.9241 17.1672 82.7439 17.1672 82.5561C17.1672 82.3682 17.0926 82.188 16.9597 82.0552C15.7659 80.8587 15.0955 79.2376 15.0955 77.5474C15.0955 75.8572 15.7659 74.2361 16.9597 73.0396C17.0926 72.9068 17.1672 72.7266 17.1672 72.5387C17.1672 72.3509 17.0926 72.1707 16.9597 72.0379C16.8269 71.905 16.6467 71.8304 16.4589 71.8304C16.271 71.8304 16.0908 71.905 15.958 72.0379C14.7615 73.2317 13.1404 73.9021 11.4502 73.9021C9.76001 73.9021 8.13885 73.2317 6.94239 72.0379C6.80955 71.905 6.62938 71.8304 6.44152 71.8304C6.25366 71.8304 6.07349 71.905 5.94066 72.0379C5.80782 72.1707 5.73319 72.3509 5.73319 72.5387C5.73319 72.7266 5.80782 72.9068 5.94066 73.0396C7.13447 74.2361 7.80492 75.8572 7.80492 77.5474C7.80492 79.2376 7.13447 80.8587 5.94066 82.0552C5.80782 82.188 5.73319 82.3682 5.73319 82.5561C5.73319 82.7439 5.80782 82.9241 5.94066 83.0569C6.07349 83.1898 6.25366 83.2644 6.44152 83.2644C6.62938 83.2644 6.80955 83.1898 6.94239 83.0569C8.13885 81.8631 9.76001 81.1927 11.4502 81.1927C13.1404 81.1927 14.7615 81.8631 15.958 83.0569C16.0908 83.1898 16.271 83.2644 16.4589 83.2644C16.6467 83.2644 16.8269 83.1898 16.9597 83.0569Z" fill="#B3C0FF"/>
  <path d="M93.5965 109.495C94.2596 110.16 94.632 111.06 94.632 111.999C94.632 112.938 94.2596 113.839 93.5965 114.504C93.4636 114.637 93.389 114.817 93.389 115.005C93.389 115.193 93.4636 115.373 93.5965 115.506C93.7293 115.638 93.9095 115.713 94.0973 115.713C94.2852 115.713 94.4654 115.638 94.5982 115.506C95.2629 114.842 96.1636 114.47 97.1025 114.47C98.0415 114.47 98.9421 114.842 99.6069 115.506C99.7397 115.638 99.9199 115.713 100.108 115.713C100.296 115.713 100.476 115.638 100.609 115.506C100.741 115.373 100.816 115.193 100.816 115.005C100.816 114.817 100.741 114.637 100.609 114.504C99.9455 113.839 99.573 112.938 99.573 111.999C99.573 111.06 99.9455 110.16 100.609 109.495C100.741 109.362 100.816 109.182 100.816 108.994C100.816 108.806 100.741 108.626 100.609 108.493C100.476 108.361 100.296 108.286 100.108 108.286C99.9199 108.286 99.7397 108.361 99.6069 108.493C98.9421 109.157 98.0415 109.529 97.1025 109.529C96.1636 109.529 95.2629 109.157 94.5982 108.493C94.4654 108.361 94.2852 108.286 94.0973 108.286C93.9095 108.286 93.7293 108.361 93.5965 108.493C93.4636 108.626 93.389 108.806 93.389 108.994C93.389 109.182 93.4636 109.362 93.5965 109.495Z" fill="#6881FF"/>
  <path d="M20.8616 26.4302C21.5248 27.0949 21.8972 27.9955 21.8972 28.9345C21.8972 29.8735 21.5248 30.7741 20.8616 31.4388C20.7288 31.5717 20.6541 31.7518 20.6541 31.9397C20.6541 32.1276 20.7288 32.3077 20.8616 32.4406C20.9944 32.5734 21.1746 32.648 21.3625 32.648C21.5503 32.648 21.7305 32.5734 21.8633 32.4406C22.5281 31.7774 23.4287 31.405 24.3677 31.405C25.3066 31.405 26.2073 31.7774 26.872 32.4406C27.0049 32.5734 27.185 32.648 27.3729 32.648C27.5607 32.648 27.7409 32.5734 27.8737 32.4406C28.0066 32.3077 28.0812 32.1276 28.0812 31.9397C28.0812 31.7518 28.0066 31.5717 27.8737 31.4388C27.2106 30.7741 26.8382 29.8735 26.8382 28.9345C26.8382 27.9955 27.2106 27.0949 27.8737 26.4302C28.0066 26.2973 28.0812 26.1172 28.0812 25.9293C28.0812 25.7414 28.0066 25.5613 27.8737 25.4284C27.7409 25.2956 27.5607 25.221 27.3729 25.221C27.185 25.221 27.0049 25.2956 26.872 25.4284C26.2073 26.0916 25.3066 26.464 24.3677 26.464C23.4287 26.464 22.5281 26.0916 21.8633 25.4284C21.7305 25.2956 21.5503 25.221 21.3625 25.221C21.1746 25.221 20.9944 25.2956 20.8616 25.4284C20.7288 25.5613 20.6541 25.7414 20.6541 25.9293C20.6541 26.1172 20.7288 26.2973 20.8616 26.4302Z" fill="#6881FF"/>
  <path d="M113.743 17.8295C113.08 17.1647 112.708 16.2641 112.708 15.3251C112.708 14.3862 113.08 13.4855 113.743 12.8208C113.876 12.688 113.951 12.5078 113.951 12.3199C113.951 12.1321 113.876 11.9519 113.743 11.8191C113.611 11.6862 113.43 11.6116 113.243 11.6116C113.055 11.6116 112.874 11.6862 112.742 11.8191C112.077 12.4822 111.176 12.8546 110.237 12.8546C109.298 12.8546 108.398 12.4822 107.733 11.8191C107.6 11.6862 107.42 11.6116 107.232 11.6116C107.044 11.6116 106.864 11.6862 106.731 11.8191C106.598 11.9519 106.524 12.1321 106.524 12.3199C106.524 12.5078 106.598 12.688 106.731 12.8208C107.394 13.4855 107.767 14.3862 107.767 15.3251C107.767 16.2641 107.394 17.1647 106.731 17.8295C106.598 17.9623 106.524 18.1425 106.524 18.3303C106.524 18.5182 106.598 18.6984 106.731 18.8312C106.864 18.964 107.044 19.0387 107.232 19.0387C107.42 19.0387 107.6 18.964 107.733 18.8312C108.398 18.1681 109.298 17.7956 110.237 17.7956C111.176 17.7956 112.077 18.1681 112.742 18.8312C112.874 18.964 113.055 19.0387 113.243 19.0387C113.43 19.0387 113.611 18.964 113.743 18.8312C113.876 18.6984 113.951 18.5182 113.951 18.3303C113.951 18.1425 113.876 17.9623 113.743 17.8295Z" fill="#6881FF"/>
  <path d="M117.858 100.265C116.664 99.0682 115.994 97.4471 115.994 95.7569C115.994 94.0667 116.664 92.4455 117.858 91.2491C117.991 91.1162 118.066 90.9361 118.066 90.7482C118.066 90.5603 117.991 90.3802 117.858 90.2473C117.725 90.1145 117.545 90.0399 117.357 90.0399C117.169 90.0399 116.989 90.1145 116.856 90.2473C115.66 91.4411 114.039 92.1116 112.349 92.1116C110.658 92.1116 109.037 91.4411 107.841 90.2473C107.708 90.1145 107.528 90.0399 107.34 90.0399C107.152 90.0399 106.972 90.1145 106.839 90.2473C106.706 90.3802 106.632 90.5603 106.632 90.7482C106.632 90.9361 106.706 91.1162 106.839 91.2491C108.033 92.4455 108.703 94.0667 108.703 95.7569C108.703 97.4471 108.033 99.0682 106.839 100.265C106.706 100.398 106.632 100.578 106.632 100.766C106.632 100.953 106.706 101.134 106.839 101.266C106.972 101.399 107.152 101.474 107.34 101.474C107.528 101.474 107.708 101.399 107.841 101.266C109.037 100.073 110.658 99.4021 112.349 99.4021C114.039 99.4021 115.66 100.073 116.856 101.266C116.989 101.399 117.169 101.474 117.357 101.474C117.545 101.474 117.725 101.399 117.858 101.266C117.991 101.134 118.066 100.953 118.066 100.766C118.066 100.578 117.991 100.398 117.858 100.265Z" fill="#B3C0FF"/>
  <path d="M98.5612 58.4053L84.5448 44.3889C84.282 44.1261 83.9255 43.9785 83.5539 43.9785C83.1822 43.9785 82.8257 44.1261 82.5629 44.3889L78.7687 48.1831H66.7342C66.3624 48.1831 66.0059 48.3308 65.743 48.5937C65.4802 48.8565 65.3325 49.213 65.3325 49.5848V62.1996C65.3326 62.5713 65.4803 62.9277 65.7432 63.1905L79.7596 77.2069C80.0225 77.4697 80.3789 77.6173 80.7506 77.6173C81.1222 77.6173 81.4787 77.4697 81.7415 77.2069L98.5612 60.3872C98.824 60.1244 98.9716 59.7679 98.9716 59.3963C98.9716 59.0246 98.824 58.6682 98.5612 58.4053Z" fill="#B3C0FF"/>
  <path d="M86.4402 71.5135L63.5206 48.5938C63.2578 48.3309 62.9013 48.1832 62.5296 48.1831H54.7L50.9058 44.3889C50.6429 44.1261 50.2865 43.9785 49.9148 43.9785C49.5432 43.9785 49.1867 44.1261 48.9239 44.3889L34.9075 58.4053C34.6447 58.6682 34.4971 59.0246 34.4971 59.3963C34.4971 59.7679 34.6447 60.1244 34.9075 60.3872L60.6416 86.1214C62.2926 87.7892 64.4893 88.8064 66.8292 88.9866C69.1691 89.1668 71.4956 88.4979 73.3825 87.1025L85.9524 77.8839C86.4413 77.5255 86.8468 77.0656 87.1413 76.5358C87.4358 76.0059 87.6123 75.4187 87.6586 74.8143C87.7049 74.2099 87.62 73.6026 87.4097 73.0341C87.1994 72.4656 86.8687 71.9492 86.4402 71.5205V71.5135Z" fill="#6881FF"/>
  <path d="M67.9607 27.1587H65.5079C65.3319 27.1585 65.158 27.1961 64.9979 27.2691C64.8379 27.3421 64.6954 27.4488 64.5802 27.5818C64.4651 27.7148 64.3799 27.871 64.3305 28.0399C64.2811 28.2087 64.2687 28.3862 64.294 28.5603L65.5205 37.1426C65.5627 37.4344 65.7086 37.7013 65.9315 37.8943C66.1544 38.0873 66.4394 38.1936 66.7343 38.1936C67.0292 38.1936 67.3142 38.0873 67.5371 37.8943C67.76 37.7013 67.9059 37.4344 67.9481 37.1426L69.1746 28.5603C69.1999 28.3862 69.1875 28.2087 69.1381 28.0399C69.0887 27.871 69.0035 27.7148 68.8884 27.5818C68.7732 27.4488 68.6307 27.3421 68.4707 27.2691C68.3106 27.1961 68.1367 27.1585 67.9607 27.1587Z" fill="#2147FF"/>
  <path d="M56.5807 30.4283C56.5223 30.2625 56.429 30.1112 56.3071 29.9847C56.1851 29.8582 56.0374 29.7593 55.8739 29.6949C55.7104 29.6304 55.535 29.6018 55.3595 29.6111C55.184 29.6203 55.0125 29.6672 54.8567 29.7485L52.6828 30.8824C52.5272 30.9638 52.3909 31.0777 52.2831 31.2163C52.1752 31.355 52.0984 31.5151 52.0578 31.6859C52.0171 31.8568 52.0136 32.0344 52.0474 32.2067C52.0812 32.379 52.1516 32.5421 52.2539 32.6849L57.3096 39.7253C57.4812 39.9657 57.7339 40.1359 58.0212 40.2047C58.3084 40.2735 58.6108 40.2362 58.8727 40.0997C59.1346 39.9632 59.3383 39.7367 59.4465 39.4619C59.5546 39.187 59.5598 38.8824 59.4611 38.604L56.5807 30.4283Z" fill="#2147FF"/>
  <path d="M81.4114 31.6855C81.3708 31.5147 81.2939 31.3546 81.1861 31.216C81.0782 31.0775 80.9419 30.9637 80.7863 30.8824L78.6123 29.7485C78.4565 29.6672 78.285 29.6203 78.1096 29.6111C77.9341 29.6018 77.7586 29.6304 77.5951 29.6949C77.4317 29.7593 77.2839 29.8582 77.162 29.9847C77.04 30.1112 76.9467 30.2625 76.8883 30.4283L74.0079 38.604C73.9092 38.8824 73.9144 39.187 74.0226 39.4619C74.1307 39.7367 74.3345 39.9632 74.5964 40.0997C74.8583 40.2362 75.1607 40.2735 75.4479 40.2047C75.7351 40.1359 75.9878 39.9657 76.1594 39.7253L81.2152 32.6849C81.3176 32.5421 81.3882 32.379 81.422 32.2066C81.4559 32.0341 81.4523 31.8564 81.4114 31.6855Z" fill="#2147FF"/>
  <path d="M72.3412 48.1831H63.9313C63.5596 48.1832 63.2031 48.3309 62.9403 48.5938L53.8297 57.7045C53.0093 58.5249 52.5483 59.6376 52.5483 60.7979C52.5483 61.9581 53.0093 63.0709 53.8297 63.8913C54.6501 64.7117 55.7628 65.1726 56.9231 65.1726C58.0834 65.1726 59.1961 64.7117 60.0165 63.8913L67.3149 56.593H72.3412C72.7129 56.593 73.0694 56.4453 73.3323 56.1824C73.5951 55.9196 73.7428 55.5631 73.7428 55.1913V49.5847C73.7428 49.213 73.5951 48.8565 73.3323 48.5936C73.0694 48.3308 72.7129 48.1831 72.3412 48.1831Z" fill="#B3C0FF"/>
  <path d="M51.3661 74.0215C52.4991 72.8884 52.4991 71.0514 51.3661 69.9183C50.233 68.7852 48.3959 68.7852 47.2629 69.9183L45.5998 71.5814C44.4667 72.7144 44.4667 74.5515 45.5998 75.6846C46.7328 76.8176 48.5699 76.8176 49.703 75.6846L51.3661 74.0215Z" fill="#B3C0FF"/>
  <path d="M56.0781 77.4769C57.2883 76.2666 57.2885 74.3046 56.0785 73.0947C54.8686 71.8847 52.9066 71.8849 51.6964 73.0952L48.7755 76.016C47.5653 77.2262 47.5651 79.1882 48.7751 80.3981C49.985 81.6081 51.947 81.6079 53.1572 80.3977L56.0781 77.4769Z" fill="#B3C0FF"/>
  <path d="M60.3329 81.5032C61.5426 80.2935 61.5428 78.3324 60.3334 77.123C59.124 75.9135 57.1629 75.9138 55.9532 77.1235L53.0334 80.0433C51.8237 81.253 51.8235 83.2141 53.0329 84.4235C54.2423 85.6329 56.2034 85.6327 57.4131 84.423L60.3329 81.5032Z" fill="#B3C0FF"/>
  <path d="M63.8318 86.008C64.9604 84.8793 64.9604 83.0493 63.8318 81.9206C62.7031 80.7919 60.8731 80.7919 59.7444 81.9206L58.3351 83.33C57.2064 84.4587 57.2064 86.2886 58.3351 87.4173C59.4637 88.546 61.2937 88.546 62.4224 87.4173L63.8318 86.008Z" fill="#B3C0FF"/>
  <path d="M82.1525 79.019C81.7808 79.0189 81.4243 78.8712 81.1615 78.6083L76.2558 73.7025C76.0004 73.4382 75.8592 73.0841 75.8624 72.7166C75.8656 72.3491 76.013 71.9976 76.2728 71.7377C76.5327 71.4778 76.8843 71.3304 77.2518 71.3272C77.6193 71.324 77.9733 71.4653 78.2377 71.7206L83.1434 76.6264C83.3394 76.8224 83.4728 77.0721 83.5269 77.3439C83.581 77.6158 83.5532 77.8976 83.4471 78.1537C83.3411 78.4097 83.1615 78.6286 82.931 78.7826C82.7006 78.9367 82.4296 79.0189 82.1525 79.019Z" fill="#3D51D4"/>
  <path d="M76.546 83.224C76.1743 83.224 75.8179 83.0762 75.5551 82.8134L70.6493 77.9076C70.394 77.6433 70.2527 77.2892 70.2559 76.9217C70.2591 76.5542 70.4065 76.2026 70.6664 75.9428C70.9263 75.6829 71.2778 75.5355 71.6453 75.5323C72.0128 75.5291 72.3669 75.6704 72.6312 75.9257L77.537 80.8314C77.7329 81.0275 77.8664 81.2772 77.9204 81.549C77.9745 81.8209 77.9468 82.1027 77.8407 82.3587C77.7346 82.6148 77.555 82.8337 77.3246 82.9877C77.0941 83.1417 76.8232 83.224 76.546 83.224Z" fill="#3D51D4"/>
  <path d="M70.9394 87.429C70.5677 87.4289 70.2113 87.2812 69.9485 87.0183L65.7436 82.8134C65.4882 82.549 65.347 82.195 65.3502 81.8274C65.3533 81.4599 65.5008 81.1084 65.7606 80.8485C66.0205 80.5886 66.3721 80.4412 66.7396 80.438C67.1071 80.4348 67.4611 80.5761 67.7255 80.8314L71.9304 85.0364C72.1264 85.2324 72.2598 85.4821 72.3139 85.754C72.3679 86.0258 72.3402 86.3076 72.2341 86.5637C72.128 86.8198 71.9484 87.0386 71.718 87.1927C71.4875 87.3467 71.2166 87.4289 70.9394 87.429Z" fill="#3D51D4"/>
  </svg>
  