<svg width="128" height="125" viewBox="0 0 128 125" fill="none" xmlns="http://www.w3.org/2000/svg">
<path d="M22.323 99.8729C22.4559 99.74 22.5305 99.5599 22.5305 99.372C22.5305 99.1841 22.4559 99.004 22.323 98.8711C21.1292 97.6747 20.4588 96.0535 20.4588 94.3633C20.4588 92.6731 21.1292 91.052 22.323 89.8555C22.4559 89.7227 22.5305 89.5425 22.5305 89.3546C22.5305 89.1668 22.4559 88.9866 22.323 88.8538C22.1902 88.7209 22.01 88.6463 21.8221 88.6463C21.6343 88.6463 21.4541 88.7209 21.3213 88.8538C20.1248 90.0476 18.5037 90.718 16.8135 90.718C15.1233 90.718 13.5021 90.0476 12.3057 88.8538C12.1728 88.7209 11.9927 88.6463 11.8048 88.6463C11.6169 88.6463 11.4368 88.7209 11.3039 88.8538C11.1711 88.9866 11.0965 89.1668 11.0965 89.3546C11.0965 89.5425 11.1711 89.7227 11.3039 89.8555C12.4977 91.052 13.1682 92.6731 13.1682 94.3633C13.1682 96.0535 12.4977 97.6747 11.3039 98.8711C11.1711 99.004 11.0965 99.1841 11.0965 99.372C11.0965 99.5599 11.1711 99.74 11.3039 99.8729C11.4368 100.006 11.6169 100.08 11.8048 100.08C11.9927 100.08 12.1728 100.006 12.3057 99.8729C13.5021 98.679 15.1233 98.0086 16.8135 98.0086C18.5037 98.0086 20.1248 98.679 21.3213 99.8729C21.4541 100.006 21.6343 100.08 21.8221 100.08C22.01 100.08 22.1902 100.006 22.323 99.8729Z" fill="#B3C0FF"/>
<path d="M61.5373 109.702C60.8742 109.037 60.5017 108.136 60.5017 107.197C60.5017 106.258 60.8742 105.358 61.5373 104.693C61.6702 104.56 61.7448 104.38 61.7448 104.192C61.7448 104.004 61.6702 103.824 61.5373 103.691C61.4045 103.558 61.2243 103.484 61.0365 103.484C60.8486 103.484 60.6684 103.558 60.5356 103.691C59.8708 104.354 58.9702 104.727 58.0313 104.727C57.0923 104.727 56.1917 104.354 55.5269 103.691C55.3941 103.558 55.2139 103.484 55.026 103.484C54.8382 103.484 54.658 103.558 54.5252 103.691C54.3923 103.824 54.3177 104.004 54.3177 104.192C54.3177 104.38 54.3923 104.56 54.5252 104.693C55.1883 105.358 55.5608 106.258 55.5608 107.197C55.5608 108.136 55.1883 109.037 54.5252 109.702C54.3923 109.834 54.3177 110.015 54.3177 110.202C54.3177 110.39 54.3923 110.57 54.5252 110.703C54.658 110.836 54.8382 110.911 55.026 110.911C55.2139 110.911 55.3941 110.836 55.5269 110.703C56.1917 110.04 57.0923 109.668 58.0312 109.668C58.9702 109.668 59.8708 110.04 60.5356 110.703C60.6684 110.836 60.8486 110.911 61.0365 110.911C61.2243 110.911 61.4045 110.836 61.5373 110.703C61.6702 110.57 61.7448 110.39 61.7448 110.202C61.7448 110.015 61.6702 109.834 61.5373 109.702Z" fill="#6881FF"/>
<path d="M114.033 30.4395C112.84 29.243 112.169 27.6219 112.169 25.9317C112.169 24.2415 112.84 22.6203 114.033 21.4239C114.166 21.291 114.241 21.1109 114.241 20.923C114.241 20.7351 114.166 20.555 114.033 20.4221C113.901 20.2893 113.72 20.2147 113.533 20.2147C113.345 20.2147 113.165 20.2893 113.032 20.4221C111.835 21.6159 110.214 22.2864 108.524 22.2864C106.834 22.2864 105.213 21.6159 104.016 20.4221C103.883 20.2893 103.703 20.2147 103.515 20.2147C103.327 20.2147 103.147 20.2893 103.014 20.4221C102.882 20.555 102.807 20.7351 102.807 20.923C102.807 21.1109 102.882 21.291 103.014 21.4239C104.208 22.6203 104.879 24.2415 104.879 25.9317C104.879 27.6219 104.208 29.243 103.014 30.4395C102.882 30.5723 102.807 30.7525 102.807 30.9404C102.807 31.1282 102.882 31.3084 103.014 31.4412C103.147 31.5741 103.327 31.6487 103.515 31.6487C103.703 31.6487 103.883 31.5741 104.016 31.4412C105.213 30.2474 106.834 29.577 108.524 29.577C110.214 29.577 111.835 30.2474 113.032 31.4412C113.165 31.5741 113.345 31.6487 113.533 31.6487C113.72 31.6487 113.901 31.5741 114.033 31.4412C114.166 31.3084 114.241 31.1282 114.241 30.9404C114.241 30.7525 114.166 30.5723 114.033 30.4395Z" fill="#B3C0FF"/>
<path d="M113.042 78.2825C111.928 76.9226 109.915 76.7227 108.555 77.8369L96.07 88.0662C96.173 88.0691 96.2767 88.0714 96.3802 88.0817C97.5119 88.1941 97.8797 89.2354 98.6003 90.1149C99.3945 91.0842 100.336 91.8066 100.161 92.9578L112.596 82.7694C113.956 81.6552 114.156 79.6424 113.042 78.2825Z" fill="#5F5C80"/>
<path d="M99.2529 89.6198C98.5322 88.7403 97.5121 88.194 96.3809 88.0817C96.2769 88.0714 96.1738 88.0691 96.0708 88.0662L92.9226 90.6456C92.403 91.0713 92.3269 91.8375 92.7526 92.3571L95.2524 95.4081C95.6782 95.9277 96.4443 96.0038 96.9639 95.5781L100.163 92.9573C100.336 91.8066 100.047 90.5891 99.2529 89.6198Z" fill="#E1E0E7"/>
<path d="M95.331 98.3365C97.1466 96.8489 97.4136 94.1612 95.926 92.3456C95.2054 91.4661 94.1852 90.9198 93.0541 90.8075C91.9223 90.6951 90.8147 91.03 89.9351 91.7507C88.9032 92.5961 88.1946 94.8213 87.7769 96.5595C89.0663 96.6961 89.8334 97.7355 91.054 98.1959C92.1144 98.5958 93.6069 98.417 94.9475 98.5917C95.0887 98.5123 95.2186 98.4286 95.331 98.3365Z" fill="#050038"/>
<path d="M87.4584 99.2829C87.5609 99.408 87.7089 99.4869 87.8686 99.5027C87.8795 99.5038 87.8904 99.5049 87.9014 99.5054C88.4447 99.53 92.9723 99.6954 94.9478 98.5917C92.0644 98.2155 90.1867 96.8146 87.7771 96.5594C87.5111 97.6686 87.3625 98.5809 87.3279 98.8055C87.3013 98.9752 87.3488 99.1492 87.4584 99.2829Z" fill="#2147FF"/>
<path d="M21.1674 34.9289L13.8042 36.2397L14.3272 39.1773L21.6903 37.8664L21.1674 34.9289Z" fill="#2147FF"/>
<path d="M27.3881 69.8752L20.0249 71.186L20.5479 74.1236L27.911 72.8127L27.3881 69.8752Z" fill="#2147FF"/>
<path d="M88.6771 22.9108L81.314 24.2217L81.8369 27.1592L89.2001 25.8484L88.6771 22.9108Z" fill="#2147FF"/>
<path d="M94.8983 57.8562L87.5352 59.167L88.0581 62.1045L95.4213 60.7937L94.8983 57.8562Z" fill="#2147FF"/>
<path d="M28.8608 18.4063L25.9155 18.9307L27.2229 26.2745L30.1682 25.7501L28.8608 18.4063Z" fill="#2147FF"/>
<path d="M71.3354 10.8443L68.3901 11.3687L69.6975 18.7125L72.6428 18.1881L71.3354 10.8443Z" fill="#2147FF"/>
<path d="M39.5273 78.3214L36.582 78.8457L37.8894 86.1895L40.8347 85.6652L39.5273 78.3214Z" fill="#2147FF"/>
<path d="M82.0024 70.7598L79.0571 71.2842L80.3645 78.628L83.3098 78.1036L82.0024 70.7598Z" fill="#2147FF"/>
<rect x="28.1837" y="32.6258" width="47.9927" height="39.1934" rx="3.25" transform="rotate(-10.0944 28.1837 32.6258)" fill="#D9E0FF"/>
<rect x="28.1837" y="32.6258" width="47.9927" height="39.1934" rx="3.25" transform="rotate(-10.0944 28.1837 32.6258)" stroke="#2147FF" stroke-width="3.5"/>
</svg>
