<svg width="128" height="125" viewBox="0 0 128 125" fill="none" xmlns="http://www.w3.org/2000/svg">
<path d="M85.6004 17.9115C85.3114 17.6219 85.1492 17.2295 85.1492 16.8204C85.1492 16.4113 85.3114 16.0189 85.6004 15.7292C85.6583 15.6713 85.6908 15.5928 85.6908 15.511C85.6908 15.4291 85.6583 15.3506 85.6004 15.2928C85.5425 15.2349 85.464 15.2024 85.3821 15.2024C85.3003 15.2024 85.2218 15.2349 85.1639 15.2928C84.8743 15.5817 84.4819 15.744 84.0728 15.744C83.6636 15.744 83.2712 15.5817 82.9816 15.2928C82.9237 15.2349 82.8452 15.2024 82.7634 15.2024C82.6815 15.2024 82.603 15.2349 82.5451 15.2928C82.4873 15.3506 82.4547 15.4291 82.4547 15.511C82.4547 15.5928 82.4873 15.6713 82.5451 15.7292C82.8341 16.0189 82.9963 16.4113 82.9963 16.8204C82.9963 17.2295 82.8341 17.6219 82.5451 17.9115C82.4873 17.9694 82.4547 18.0479 82.4547 18.1298C82.4547 18.2116 82.4873 18.2901 82.5451 18.348C82.603 18.4059 82.6815 18.4384 82.7634 18.4384C82.8452 18.4384 82.9237 18.4059 82.9816 18.348C83.2712 18.0591 83.6636 17.8968 84.0728 17.8968C84.4819 17.8968 84.8743 18.0591 85.1639 18.348C85.2218 18.4059 85.3003 18.4384 85.3821 18.4384C85.464 18.4384 85.5425 18.4059 85.6004 18.348C85.6583 18.2901 85.6908 18.2116 85.6908 18.1298C85.6908 18.0479 85.6583 17.9694 85.6004 17.9115Z" fill="#6881FF"/>
<path d="M117.586 63.8695C116.923 63.2048 116.55 62.3041 116.55 61.3652C116.55 60.4262 116.923 59.5256 117.586 58.8608C117.718 58.728 117.793 58.5478 117.793 58.36C117.793 58.1721 117.718 57.9919 117.586 57.8591C117.453 57.7263 117.273 57.6516 117.085 57.6516C116.897 57.6516 116.717 57.7263 116.584 57.8591C115.919 58.5223 115.019 58.8947 114.08 58.8947C113.141 58.8947 112.24 58.5223 111.575 57.8591C111.442 57.7263 111.262 57.6516 111.074 57.6516C110.887 57.6516 110.706 57.7263 110.574 57.8591C110.441 57.9919 110.366 58.1721 110.366 58.36C110.366 58.5478 110.441 58.728 110.574 58.8608C111.237 59.5256 111.609 60.4262 111.609 61.3652C111.609 62.3041 111.237 63.2048 110.574 63.8695C110.441 64.0023 110.366 64.1825 110.366 64.3704C110.366 64.5582 110.441 64.7384 110.574 64.8712C110.706 65.0041 110.887 65.0787 111.074 65.0787C111.262 65.0787 111.442 65.0041 111.575 64.8712C112.24 64.2081 113.141 63.8357 114.08 63.8357C115.019 63.8357 115.919 64.2081 116.584 64.8712C116.717 65.0041 116.897 65.0787 117.085 65.0787C117.273 65.0787 117.453 65.0041 117.586 64.8712C117.718 64.7384 117.793 64.5582 117.793 64.3704C117.793 64.1825 117.718 64.0023 117.586 63.8695Z" fill="#6881FF"/>
<path d="M21.3243 34.831C20.8295 34.3351 20.5517 33.6631 20.5517 32.9626C20.5517 32.262 20.8295 31.5901 21.3243 31.0941C21.4234 30.995 21.4791 30.8606 21.4791 30.7205C21.4791 30.5803 21.4234 30.4459 21.3243 30.3468C21.2252 30.2477 21.0908 30.192 20.9506 30.192C20.8105 30.192 20.676 30.2477 20.5769 30.3468C20.081 30.8415 19.409 31.1194 18.7085 31.1194C18.008 31.1194 17.336 30.8415 16.8401 30.3468C16.741 30.2477 16.6065 30.192 16.4664 30.192C16.3262 30.192 16.1918 30.2477 16.0927 30.3468C15.9936 30.4459 15.9379 30.5803 15.9379 30.7205C15.9379 30.8606 15.9936 30.995 16.0927 31.0941C16.5874 31.5901 16.8653 32.262 16.8653 32.9626C16.8653 33.6631 16.5874 34.3351 16.0927 34.831C15.9936 34.9301 15.9379 35.0645 15.9379 35.2047C15.9379 35.3449 15.9936 35.4793 16.0927 35.5784C16.1918 35.6775 16.3262 35.7332 16.4664 35.7332C16.6065 35.7332 16.741 35.6775 16.8401 35.5784C17.336 35.0836 18.008 34.8058 18.7085 34.8058C19.409 34.8058 20.081 35.0836 20.5769 35.5784C20.676 35.6775 20.8105 35.7332 20.9506 35.7332C21.0908 35.7332 21.2252 35.6775 21.3243 35.5784C21.4234 35.4793 21.4791 35.3449 21.4791 35.2047C21.4791 35.0645 21.4234 34.9301 21.3243 34.831Z" fill="#6881FF"/>
<path d="M31.7421 20.1006C31.1932 19.5506 30.885 18.8052 30.885 18.0281C30.885 17.251 31.1932 16.5057 31.7421 15.9556C31.8032 15.8945 31.8375 15.8117 31.8375 15.7253C31.8375 15.6389 31.8032 15.5561 31.7421 15.495C31.681 15.4339 31.5982 15.3996 31.5118 15.3996C31.4254 15.3996 31.3426 15.4339 31.2815 15.495C30.7314 16.0439 29.9861 16.3521 29.209 16.3521C28.4319 16.3521 27.6865 16.0439 27.1364 15.495C27.0754 15.4339 26.9925 15.3996 26.9062 15.3996C26.8198 15.3996 26.737 15.4339 26.6759 15.495C26.6148 15.5561 26.5805 15.6389 26.5805 15.7253C26.5805 15.8117 26.6148 15.8945 26.6759 15.9556C27.2248 16.5057 27.533 17.251 27.533 18.0281C27.533 18.8052 27.2248 19.5506 26.6759 20.1006C26.6148 20.1617 26.5805 20.2446 26.5805 20.3309C26.5805 20.4173 26.6148 20.5001 26.6759 20.5612C26.737 20.6223 26.8198 20.6566 26.9062 20.6566C26.9925 20.6566 27.0754 20.6223 27.1364 20.5612C27.6865 20.0123 28.4319 19.7041 29.209 19.7041C29.9861 19.7041 30.7314 20.0123 31.2815 20.5612C31.3426 20.6223 31.4254 20.6566 31.5118 20.6566C31.5982 20.6566 31.681 20.6223 31.7421 20.5612C31.8032 20.5001 31.8375 20.4173 31.8375 20.3309C31.8375 20.2446 31.8032 20.1617 31.7421 20.1006Z" fill="#B3C0FF"/>
<path d="M67.9334 58.2856L42.4439 83.774C41.992 84.227 41.992 84.9592 42.4439 85.4122L48.2367 91.205C48.6885 91.6569 49.4219 91.6569 49.8749 91.205L75.3644 65.7167L67.9334 58.2856Z" fill="#5F5C80"/>
<path d="M75.0238 66.055L81.1561 59.9227C81.6079 59.4709 81.6079 58.7364 81.1561 58.2845L75.3632 52.4917C74.9114 52.0399 74.1769 52.0399 73.725 52.4917L67.5928 58.624L75.0238 66.055Z" fill="#6881FF"/>
<path d="M91.9224 75.3236C89.3631 75.3236 87.2882 73.2486 87.2882 70.6893C87.2882 70.0486 86.7703 69.5308 86.1296 69.5308C85.4889 69.5308 84.971 70.0486 84.971 70.6893C84.971 73.2486 82.896 75.3236 80.3368 75.3236C79.6961 75.3236 79.1782 75.8414 79.1782 76.4821C79.1782 77.1228 79.6961 77.6407 80.3368 77.6407C82.896 77.6407 84.971 79.7157 84.971 82.2749C84.971 82.9156 85.4889 83.4335 86.1296 83.4335C86.7703 83.4335 87.2882 82.9156 87.2882 82.2749C87.2882 79.7157 89.3631 77.6407 91.9224 77.6407C92.5631 77.6407 93.081 77.1228 93.081 76.4821C93.081 75.8414 92.5631 75.3236 91.9224 75.3236Z" fill="#B3C0FF"/>
<path d="M93.0811 45.201C90.5218 45.201 88.4468 43.126 88.4468 40.5668C88.4468 39.9261 87.929 39.4082 87.2883 39.4082C86.6476 39.4082 86.1297 39.9261 86.1297 40.5668C86.1297 43.126 84.0547 45.201 81.4955 45.201C80.8548 45.201 80.3369 45.7189 80.3369 46.3596C80.3369 47.0003 80.8548 47.5181 81.4955 47.5181C84.0547 47.5181 86.1297 49.5931 86.1297 52.1524C86.1297 52.7931 86.6476 53.3109 87.2883 53.3109C87.929 53.3109 88.4468 52.7931 88.4468 52.1524C88.4468 49.5931 90.5218 47.5181 93.0811 47.5181C93.7218 47.5181 94.2397 47.0003 94.2397 46.3596C94.2397 45.7189 93.7218 45.201 93.0811 45.201Z" fill="#B3C0FF"/>
<path d="M62.9585 46.3597C60.3993 46.3597 58.3243 44.2847 58.3243 41.7255C58.3243 41.0848 57.8064 40.5669 57.1657 40.5669C56.525 40.5669 56.0072 41.0848 56.0072 41.7255C56.0072 44.2847 53.9322 46.3597 51.3729 46.3597C50.7322 46.3597 50.2144 46.8776 50.2144 47.5183C50.2144 48.1589 50.7322 48.6768 51.3729 48.6768C53.9322 48.6768 56.0072 50.7518 56.0072 53.3111C56.0072 53.9518 56.525 54.4696 57.1657 54.4696C57.8064 54.4696 58.3243 53.9518 58.3243 53.3111C58.3243 50.7518 60.3993 48.6768 62.9585 48.6768C63.5992 48.6768 64.1171 48.1589 64.1171 47.5183C64.1171 46.8776 63.5992 46.3597 62.9585 46.3597Z" fill="#B3C0FF"/>
</svg>
